<?xml version="1.0" encoding="UTF-8" standalone="no"?>
<svg
   xmlns:dc="http://purl.org/dc/elements/1.1/"
   xmlns:cc="http://creativecommons.org/ns#"
   xmlns:rdf="http://www.w3.org/1999/02/22-rdf-syntax-ns#"
   xmlns:svg="http://www.w3.org/2000/svg"
   xmlns="http://www.w3.org/2000/svg"
   xmlns:sodipodi="http://sodipodi.sourceforge.net/DTD/sodipodi-0.dtd"
   xmlns:inkscape="http://www.inkscape.org/namespaces/inkscape"
   width="157.50356"
   height="157.50356"
   viewBox="0 0 157.50356 157.50355"
   version="1.1"
   id="SVGRoot"
   inkscape:version="1.0 (4035a4fb49, 2020-05-01)"
   sodipodi:docname="mcclim-logo-round.svg"
   inkscape:export-filename="/home/jmoringe/code/cl/mcclim/data/mcclim-logo-small.png"
   inkscape:export-xdpi="39.23782"
   inkscape:export-ydpi="39.23782">
  <sodipodi:namedview
     id="base"
     pagecolor="#ffffff"
     bordercolor="#666666"
     borderopacity="1.0"
     inkscape:pageopacity="0.0"
     inkscape:pageshadow="2"
     inkscape:zoom="1.9284994"
     inkscape:cx="12.436654"
     inkscape:cy="122.27887"
     inkscape:document-units="px"
     inkscape:current-layer="layer1"
     showgrid="false"
     showguides="true"
     inkscape:guide-bbox="true"
     inkscape:document-rotation="0"
     inkscape:window-width="1920"
     inkscape:window-height="1136"
     inkscape:window-x="1920"
     inkscape:window-y="27"
     inkscape:window-maximized="1"
     fit-margin-top="0"
     fit-margin-left="0"
     fit-margin-right="0"
     fit-margin-bottom="0">
    <sodipodi:guide
       position="6.7034991,156.35779"
       orientation="1,0"
       id="guide1463" />
  </sodipodi:namedview>
  <defs
     id="defs2098" />
  <metadata
     id="metadata2101">
    <rdf:RDF>
      <cc:Work
         rdf:about="">
        <dc:format>image/svg+xml</dc:format>
        <dc:type
           rdf:resource="http://purl.org/dc/dcmitype/StillImage" />
        <dc:title></dc:title>
      </cc:Work>
    </rdf:RDF>
  </metadata>
  <g
     id="layer1"
     inkscape:groupmode="layer"
     inkscape:label="Layer 1"
     transform="translate(7.49318,68.04901)">
    <circle
       r="76.867683"
       cy="10.702768"
       cx="71.258598"
       id="path1337"
       style="fill:#ffffff;fill-opacity:1;stroke:#000000;stroke-width:3.76819;stroke-miterlimit:4;stroke-dasharray:none;stroke-opacity:1" />
    <g
       aria-label="Mc"
       transform="matrix(1.0752024,0,0,1.0752024,-2014.9187,-414.41232)"
       style="font-style:normal;font-variant:normal;font-weight:normal;font-stretch:normal;font-size:108px;line-height:1.25;font-family:'URW Chancery L';-inkscape-font-specification:'URW Chancery L';letter-spacing:-0.02px;word-spacing:0px;fill:#0b00bc;fill-opacity:0.815686;stroke:none;stroke-width:1.03306"
       id="flowRoot342-3">
      <path
         style="stroke-width:1.03306"
         d="m 1887.8919,405.20904 c 1.62,0.09 2.97,0.09 3.87,0.09 7.02,0 11.7,-2.07 15.57,-6.84 2.88,-3.69 3.96,-5.94 6.12,-13.32 0.99,-3.6 4.32,-15.84 5.85,-22.05 3.15,32.49 3.24,33.21 3.42,40.41 l 4.41,-3.42 c 3.15,-6.75 9.18,-16.11 24.03,-37.26 l -0.9,3.96 c -0.27,1.35 -0.99,4.05 -2.07,8.01 -5.22,19.44 -6.3,23.58 -6.48,24.03 -0.72,2.07 -1.17,3.96 -1.17,5.22 0,1.26 0.99,2.34 2.16,2.34 0.45,0 0.99,-0.09 1.71,-0.18 0.9,-0.18 6.21,-1.08 8.46,-1.44 l 4.23,-0.54 c 0.27,-0.09 0.99,-0.18 2.16,-0.36 l 1.89,-2.25 c -1.53,0.09 -2.97,0.18 -3.42,0.27 -1.53,0.09 -2.97,0.18 -3.69,0.18 -2.88,0 -4.5,-1.35 -4.5,-3.6 0,-2.34 0.09,-2.88 2.43,-12.42 3.87,-15.66 4.14,-16.74 5.85,-22.86 3.6,-12.51 4.05,-13.5 6.39,-13.5 0.81,0 1.98,0.09 3.15,0.36 0.27,0.09 1.35,0.27 2.43,0.45 l 3.69,-5.04 c -1.62,-0.45 -2.52,-0.54 -3.6,-0.54 -2.34,0 -4.32,0.72 -7.56,2.61 -5.04,2.88 -5.94,3.69 -9.18,8.28 l -12.15,16.92 -10.17,14.76 -2.25,3.24 c -1.17,-13.68 -3.51,-33.57 -4.68,-39.87 l -2.8559,1.39279 c -3.0244,0.27533 -5.0641,0.31721 -7.2241,0.31721 -6.03,0 -9.63,1.53 -13.86,5.94 -4.86,4.86 -7.74,10.62 -7.74,15.21 0,2.61 0.54,4.95 2.07,8.28 l 6.84,-4.77 c -2.16,-4.68 -2.88,-6.93 -2.88,-9.54 0,-5.85 4.41,-9.09 12.24,-9.09 2.07,0 3.51,0.09 6.48,0.54 -3.96,16.11 -8.82,32.94 -10.44,35.82 -1.71,3.15 -3.96,4.5 -7.83,4.5 -1.53,0 -1.53,0 -6.66,-0.45 z"
         id="path1264"
         inkscape:connector-curvature="0"
         sodipodi:nodetypes="cscccccccccssccccccssccscccscccccccscsccssccscc" />
      <path
         style="stroke-width:1.03306"
         inkscape:connector-curvature="0"
         d="m 1992.6375,393.77904 c -6.93,4.95 -11.7,7.47 -14.58,7.47 -3.24,0 -5.13,-2.52 -5.13,-6.84 0,-4.32 1.08,-10.08 2.79,-14.31 1.8,-4.77 4.14,-7.2 6.75,-7.2 2.16,0 3.33,1.71 3.78,5.67 l 5.22,-3.06 c 0.09,-0.45 0.09,-0.9 0.09,-0.99 0,-3.87 -1.98,-6.3 -5.13,-6.3 -1.62,0 -2.61,0.36 -5.85,2.52 -6.75,4.23 -8.19,5.58 -10.17,9.27 -2.52,4.86 -4.41,12.51 -4.41,18.09 0,5.22 2.43,8.28 6.57,8.28 4.32,0 11.7,-3.6 19.89,-9.72 z"
         id="path1266" />
    </g>
    <path
       style="fill:#000000;stroke:#000000;stroke-width:0.999997px;stroke-linecap:butt;stroke-linejoin:miter;stroke-opacity:1"
       d="m 58.065648,31.821676 11.028231,41.705692 21.26083,-13.567041 z m 24.853891,33.049274 -6.68734,4.309092 6.97769,9.632571 6.2286,-4.403595 z"
       id="path1182-4"
       inkscape:connector-curvature="0"
       sodipodi:nodetypes="ccccccccc" />
  </g>
</svg>
